<?xml version="1.0" encoding="UTF-8"?>
<svg width="20px" height="20px" viewBox="0 0 20 20" version="1.1" xmlns="http://www.w3.org/2000/svg" xmlns:xlink="http://www.w3.org/1999/xlink">
    <!-- Generator: Sketch 55.2 (78181) - https://sketchapp.com -->
    <title>形状</title>
    <desc>Created with Sketch.</desc>
    <g id="组件" stroke="none" stroke-width="1" fill="none" fill-rule="evenodd">
        <g id="首页" transform="translate(-608.000000, -350.000000)" fill="#FFFFFF" fill-rule="nonzero">
            <g id="1">
                <g id="文字" transform="translate(404.000000, 185.000000)">
                    <g id="二维码下载" transform="translate(172.000000, 150.000000)">
                        <g id="二维码" transform="translate(27.000000, 10.410193)">
                            <path d="M6.55449219,4.92490234 L14.0788086,4.92490234 C14.84375,4.99873047 14.6591797,6.3296875 14.6591797,7.19306641 L14.6591797,11.3069336 C14.6591797,12.2010742 14.8293945,13.2982422 14.2305664,13.5504883 C13.840918,13.7166016 12.790918,13.599707 12.2864258,13.599707 L8.29765625,13.599707 C7.37480469,13.599707 6.115625,13.8170898 5.97412109,13.0254883 L5.97412109,5.49912109 C6.07666016,5.21816406 6.25712891,5.01513672 6.55449219,4.92490234 M7.59013672,6.62089844 L7.59013672,11.9816406 L13.0185547,11.9816406 L13.0185547,6.54501953 L7.61474609,6.54501953 C7.58603516,6.54912109 7.58808594,6.58398438 7.59013672,6.62089844 M16.6545898,4.92490234 L24.1789063,4.92490234 C24.4865234,5.03769531 24.6957031,5.24482422 24.7592773,5.59755859 L24.7592773,12.9291016 C24.6895508,13.234668 24.5295898,13.4930664 24.228125,13.5771484 C23.7379883,13.7145508 22.9217773,13.6017578 22.3352539,13.6017578 L18.4736328,13.6017578 C17.8912109,13.6017578 17.027832,13.7227539 16.5541016,13.5771484 C15.8855469,13.3720703 16.0742188,12.0841797 16.0742188,11.1838867 L16.0742188,7.34277344 C16.0742188,6.30302734 15.8424805,5.07050781 16.6545898,4.92490234 M17.6902344,6.62089844 L17.6902344,11.9816406 L23.1186523,11.9816406 L23.1186523,6.54501953 L17.7148438,6.54501953 C17.6861328,6.54912109 17.6881836,6.58398438 17.6902344,6.62089844 M10.0633789,8.19179688 C10.8201172,8.05029297 11.4148437,8.55478516 11.4271484,9.23974609 C11.4435547,10.1420898 10.5104492,10.6363281 9.78652344,10.2630859 C8.95595703,9.83242188 9.01132812,8.38662109 10.0633789,8.19179688 M20.1655273,8.19179688 C21.9456055,7.86367188 21.912793,10.6486328 20.1655273,10.3615234 C19.0540039,10.1769531 19.0170898,8.40302734 20.1655273,8.19179688 M14.0295898,23.7264648 L6.57910156,23.7264648 C6.26943359,23.6321289 6.06025391,23.4393555 5.97207031,23.1276367 L5.97207031,15.6217773 C6.04589844,15.4023438 6.21611328,15.1459961 6.4765625,15.072168 C6.97080078,14.9347656 7.77880859,15.0475586 8.37148437,15.0475586 L12.2351562,15.0475586 C12.8052734,15.0475586 13.6378906,14.9224609 14.1546875,15.072168 C14.8540039,15.2751953 14.6591797,16.5425781 14.6591797,17.4408203 L14.6591797,21.4049805 C14.6591797,22.3770508 14.8704102,23.640332 14.0295898,23.7264648 M7.59013672,16.7435547 L7.59013672,22.1042969 L13.0185547,22.1042969 L13.0185547,16.6697266 L7.61474609,16.6697266 C7.58603516,16.6738281 7.58808594,16.7086914 7.59013672,16.7435547 M24.7613281,15.7222656 L24.7613281,17.8161133 C24.7018555,18.521582 24.753125,19.337793 24.7367187,20.0842773 L19.3575195,20.0842773 L19.3575195,18.8620117 C18.8530273,18.8045898 18.237793,18.8538086 17.6902344,18.8374023 C17.6307617,20.4165039 17.6820312,22.1042969 17.665625,23.7244141 L16.68125,23.7244141 C15.8322266,23.5583008 16.0742187,22.3032227 16.0742187,21.3085938 L16.0742187,17.4428711 C16.0742187,16.8625 15.9552734,15.990918 16.0988281,15.5233398 C16.2710937,14.9655273 17.0175781,15.0496094 17.7661133,15.0496094 L21.4267578,15.0496094 L21.4267578,18.3657227 L23.1186523,18.3657227 C23.1350586,17.2685547 23.0858398,16.1057617 23.1432617,15.0496094 C23.9594727,15.0003906 24.7121094,15.0126953 24.7613281,15.7222656 M10.1905273,18.2898438 C10.9985352,18.2016602 11.6650391,18.9686523 11.3512695,19.8115234 C10.9165039,20.9804688 8.84111328,20.5416016 9.23076172,19.0629883 C9.33740234,18.6548828 9.64912109,18.3493164 10.1905273,18.2898438 M21.1745117,23.7264648 L19.3554688,23.7264648 C19.371875,23.0866211 19.3226562,22.3791016 19.3800781,21.7802734 L21.1724609,21.7802734 L21.1724609,23.7264648 M24.7613281,21.7823242 L24.7613281,23.0538086 C24.6916016,23.4085938 24.4803711,23.6239258 24.1563477,23.7264648 L22.868457,23.7264648 C22.8848633,23.0866211 22.8356445,22.3791016 22.8930664,21.7823242 L24.7613281,21.7823242" id="形状"></path>
                        </g>
                    </g>
                </g>
            </g>
        </g>
    </g>
</svg>