<?xml version="1.0" encoding="UTF-8"?>
<svg width="35px" height="35px" viewBox="0 0 35 35" version="1.1" xmlns="http://www.w3.org/2000/svg" xmlns:xlink="http://www.w3.org/1999/xlink">
    <!-- Generator: Sketch 55.2 (78181) - https://sketchapp.com -->
    <title>skype备份</title>
    <desc>Created with Sketch.</desc>
    <g id="页面1" stroke="none" stroke-width="1" fill="none" fill-rule="evenodd">
        <g id="4-投放广告" transform="translate(-513.000000, -606.000000)">
            <g id="步骤1" transform="translate(463.000000, 414.000000)">
                <g id="skype备份" transform="translate(50.000000, 192.000000)">
                    <g id="编组">
                        <path d="M17.5,0.105060034 C7.82727271,0.105060034 0,7.83835177 0,17.39494 C0,26.9515282 7.82727271,34.6848199 17.5,34.6848199 C27.1727273,34.6848199 35,26.9515282 35,17.39494 C35,7.83835177 27.1727273,0.105060034 17.5,0.105060034 Z" id="路径" fill="#00AFF0"></path>
                        <path d="M22.1072168,19.2721921 C22.1072168,18.897336 22.033645,18.5544932 21.8862451,18.2441702 C21.7388623,17.9328342 21.5549414,17.6769136 21.3342261,17.4743654 C21.1140405,17.2723068 20.8372534,17.0883148 20.5041211,16.9238752 C20.1710059,16.758929 19.8582104,16.6313486 19.5652051,16.5408807 C19.2369439,16.4416881 18.9048592,16.3552957 18.5697217,16.2819039 L17.3859082,16.0127627 C17.1587842,15.9601501 16.9918164,15.9210115 16.8853467,15.8948403 C16.7783301,15.8689054 16.646106,15.8257145 16.4879053,15.7654701 C16.3294482,15.7049893 16.2157495,15.6447449 16.1470654,15.5855473 C16.0783813,15.5263497 16.0156274,15.4475322 15.9592822,15.3496856 C15.9017964,15.2466092 15.8722055,15.1306207 15.8733716,15.0129382 C15.8733716,14.4357703 16.4194775,14.1470597 17.5111938,14.1470597 C17.8376099,14.1470597 18.1293335,14.1920572 18.3878516,14.2822719 C18.6458569,14.3722333 18.8508667,14.4792313 19.0021289,14.6030127 C19.1502998,14.7240619 19.2945919,14.8496723 19.4347925,14.9796586 C19.5714856,15.1072314 19.7241553,15.2169798 19.8890747,15.3062245 C20.0563982,15.3964656 20.2443026,15.4429242 20.4349243,15.4411835 C20.7914526,15.4411835 21.0775024,15.3214714 21.2938428,15.0818276 C21.5106958,14.8421669 21.6187207,14.5531861 21.6187207,14.2156789 C21.6187207,13.8034571 21.4065161,13.4308804 20.9810474,13.0984555 C20.5560913,12.765524 20.0176929,12.5128959 19.3666382,12.340588 C18.7155664,12.1677736 18.0248975,12.081358 17.2963916,12.081358 C16.7811499,12.081358 16.2805713,12.1395594 15.7954248,12.2557089 C15.3194226,12.3680904 14.8617211,12.5458605 14.4356885,12.7838269 C14.0175223,13.0166593 13.6685628,13.353889 13.4237134,13.7617858 C13.1705957,14.1780768 13.0432593,14.659171 13.0424902,15.2058453 C13.0424902,15.6635712 13.1142676,16.0623191 13.2578052,16.4026292 C13.3949761,16.7339184 13.6142562,17.0258142 13.8954785,17.2514711 C14.1719625,17.4736444 14.4781337,17.6570902 14.8053418,17.7966258 C15.1304761,17.934624 15.5212183,18.056109 15.9772949,18.1620771 L17.6382568,18.5661774 C18.3204492,18.7308702 18.7454053,18.8663189 18.9120996,18.9707842 C19.1546729,19.1202133 19.2760791,19.3451337 19.2760791,19.6447687 C19.2760791,19.9372952 19.124834,20.1795055 18.8220703,20.3701163 C18.5185205,20.5607271 18.1208398,20.6562773 17.6277124,20.6562773 C17.2416016,20.6562773 16.8943359,20.5965563 16.5866846,20.4763545 C16.2790332,20.3563891 16.0325977,20.2122786 15.8471387,20.0437867 C15.6619189,19.8750415 15.4895679,19.7060262 15.3303418,19.537281 C15.1711157,19.3685359 14.9969702,19.2244085 14.8076489,19.1042067 C14.6249191,18.986379 14.4113014,18.9239201 14.1930981,18.9245203 C13.8134302,18.9245203 13.5273804,19.0366006 13.3344531,19.2610144 C13.1412695,19.4856816 13.0448145,19.766507 13.0448145,20.103761 C13.0448145,20.7932625 13.5073169,21.3828913 14.4323389,21.8731371 C15.3573608,22.3631296 16.4603906,22.6086323 17.7414111,22.6091389 C18.2942163,22.6091389 18.8254199,22.5400131 19.3337061,22.4010018 C19.842522,22.2619905 20.3065625,22.0614515 20.7271436,21.7999421 C21.1474683,21.5379261 21.4829077,21.187958 21.7329492,20.7495481 C21.9837427,20.3111551 22.1087549,19.8191196 22.1087549,19.2721921 L22.1072168,19.2721921 L22.1072168,19.2721921 Z M26.2358496,21.7104872 C26.2358496,22.9019187 25.8096118,23.9185096 24.9561108,24.761273 C24.1031055,25.6040196 23.0739038,26.0261527 21.8682495,26.0261527 C20.8819946,26.0261527 19.9950659,25.7262645 19.2068823,25.1269776 C18.6227002,25.2469431 18.0536938,25.3069173 17.5003931,25.3069173 C16.4163843,25.3069173 15.3792187,25.0990336 14.3891187,24.6824724 C13.3990186,24.2661814 12.5460303,23.7045136 11.829624,22.9967091 C11.1132178,22.2889046 10.5444678,21.4459217 10.123374,20.4682161 C9.70340407,19.4966746 9.48835146,18.4507305 9.49135742,17.3942983 C9.49135742,16.847641 9.55206055,16.2857199 9.67348389,15.7082987 C9.06691406,14.9290721 8.76362061,14.052016 8.76362061,13.0788861 C8.76362061,11.8879612 9.19013184,10.8708638 10.0436499,10.0281003 C10.8966211,9.18535377 11.9258228,8.76372722 13.1314941,8.76372722 C14.1174756,8.76372722 15.0044214,9.06336219 15.7928613,9.66264901 C16.3538475,9.54490625 16.9256102,9.48452376 17.4991113,9.48245605 C18.5833252,9.48245605 19.6199951,9.69084638 20.6103516,10.1068841 C21.600708,10.5234284 22.4534399,11.0850962 23.1695898,11.7929007 C23.8859961,12.5004519 24.4544727,13.3434517 24.8758398,14.3216638 C25.295874,15.2931768 25.5108457,16.3391515 25.5076001,17.3955816 C25.5076001,17.9417324 25.4474097,18.5036535 25.32573,19.0813449 C25.9328125,19.8610611 26.2358496,20.7371041 26.2358496,21.7104872 L26.2358496,21.7104872 Z" id="5-14-2-skype备份" fill="#FFFFFF" fill-rule="nonzero"></path>
                    </g>
                </g>
            </g>
        </g>
    </g>
</svg>